<?xml version="1.0" encoding="UTF-8" standalone="no"?>
<!-- Created with Inkscape (http://www.inkscape.org/) -->

<svg
   width="512mm"
   height="512mm"
   viewBox="0 0 512 512"
   version="1.1"
   id="svg5"
   xml:space="preserve"
   inkscape:version="1.2.2 (732a01da63, 2022-12-09)"
   sodipodi:docname="scattet_plot_disabled.svg"
   xmlns:inkscape="http://www.inkscape.org/namespaces/inkscape"
   xmlns:sodipodi="http://sodipodi.sourceforge.net/DTD/sodipodi-0.dtd"
   xmlns="http://www.w3.org/2000/svg"
   xmlns:svg="http://www.w3.org/2000/svg"><sodipodi:namedview
     id="namedview7"
     pagecolor="#505050"
     bordercolor="#ffffff"
     borderopacity="1"
     inkscape:showpageshadow="0"
     inkscape:pageopacity="0"
     inkscape:pagecheckerboard="1"
     inkscape:deskcolor="#505050"
     inkscape:document-units="mm"
     showgrid="false"
     inkscape:zoom="0.26110523"
     inkscape:cx="884.70078"
     inkscape:cy="1114.4932"
     inkscape:window-width="1920"
     inkscape:window-height="1009"
     inkscape:window-x="1912"
     inkscape:window-y="-8"
     inkscape:window-maximized="1"
     inkscape:current-layer="layer1" /><defs
     id="defs2"><style
       type="text/css"
       id="style113" /><style
       type="text/css"
       id="style130" /></defs><g
     inkscape:label="圖層 1"
     inkscape:groupmode="layer"
     id="layer1"><g
       id="g128"
       transform="matrix(0.05167643,0,0,0.05167643,838.25608,436.27736)"><path
         d="M 483.556,540.444 V 145.067 C 292.978,159.289 142.222,318.577 142.222,512 c 0,204.8 164.978,369.778 369.778,369.778 193.422,0 352.711,-150.756 366.933,-341.334 z"
         fill="#706ee7"
         p-id="2082"
         id="path117" /><path
         d="M 540.444,116.622 V 483.556 H 907.378 C 896,287.289 736.71,128 540.444,116.622 Z"
         fill="#29c287"
         p-id="2083"
         id="path119" /></g><g
       id="g145"
       transform="matrix(0.05167643,0,0,0.05167643,840.28272,355.21171)"><path
         d="M 483.556,540.444 V 145.067 C 292.978,159.289 142.222,318.577 142.222,512 c 0,204.8 164.978,369.778 369.778,369.778 193.422,0 352.711,-150.756 366.933,-341.334 z"
         fill="#909399"
         p-id="2082"
         id="path134" /><path
         d="M 540.444,116.622 V 483.556 H 907.378 C 896,287.289 736.71,128 540.444,116.622 Z"
         fill="#909399"
         p-id="2083"
         id="path136" /></g><path
       style="fill:#000000;fill-opacity:0;stroke:none;stroke-width:0.716526"
       d="M 278.96148,442.82114 V 271.57145 h 5.37394 5.37395 l -10e-6,166.05488 -1e-5,166.05488 166.59229,-0.18214 166.5923,-0.18216 v 5.37697 5.37696 H 450.9277 278.96148 Z"
       id="path1903-6" /><circle
       style="fill:#909399;fill-opacity:1;stroke:#909399;stroke-width:0.707445;stroke-dasharray:none;stroke-opacity:1"
       id="path7275"
       cx="97.37735"
       cy="416.19788"
       r="25.53945" /><circle
       style="fill:#909399;fill-opacity:1;stroke:#909399;stroke-width:0.707445;stroke-dasharray:none;stroke-opacity:1"
       id="path7275-6"
       cx="96.481689"
       cy="346.61639"
       r="25.53945" /><circle
       style="fill:#909399;fill-opacity:1;stroke:#909399;stroke-width:0.707445;stroke-dasharray:none;stroke-opacity:1"
       id="path7275-9"
       cx="96.266525"
       cy="274.66293"
       r="25.53945" /><circle
       style="fill:#909399;fill-opacity:1;stroke:#909399;stroke-width:0.707445;stroke-dasharray:none;stroke-opacity:1"
       id="path7275-2"
       cx="204.62704"
       cy="347.40399"
       r="25.53945" /><circle
       style="fill:#909399;fill-opacity:1;stroke:#909399;stroke-width:0.707445;stroke-dasharray:none;stroke-opacity:1"
       id="path7275-6-8"
       cx="203.73138"
       cy="277.82254"
       r="25.53945" /><circle
       style="fill:#909399;fill-opacity:1;stroke:#909399;stroke-width:0.707445;stroke-dasharray:none;stroke-opacity:1"
       id="path7275-9-5"
       cx="203.5162"
       cy="205.86909"
       r="25.53945" /><circle
       style="fill:#909399;fill-opacity:1;stroke:#909399;stroke-width:0.707445;stroke-dasharray:none;stroke-opacity:1"
       id="path7275-2-2"
       cx="314.68481"
       cy="286.60477"
       r="25.53945" /><circle
       style="fill:#909399;fill-opacity:1;stroke:#909399;stroke-width:0.707445;stroke-dasharray:none;stroke-opacity:1"
       id="path7275-6-8-4"
       cx="313.78915"
       cy="217.0233"
       r="25.53945" /><circle
       style="fill:#909399;fill-opacity:1;stroke:#909399;stroke-width:0.707445;stroke-dasharray:none;stroke-opacity:1"
       id="path7275-9-5-1"
       cx="313.57401"
       cy="145.06985"
       r="25.53945" /><circle
       style="fill:#909399;fill-opacity:1;stroke:#909399;stroke-width:0.707445;stroke-dasharray:none;stroke-opacity:1"
       id="path7275-2-2-0"
       cx="419.18076"
       cy="227.66299"
       r="25.53945" /><circle
       style="fill:#909399;fill-opacity:1;stroke:#909399;stroke-width:0.707445;stroke-dasharray:none;stroke-opacity:1"
       id="path7275-6-8-4-7"
       cx="418.2851"
       cy="158.08151"
       r="25.53945" /><circle
       style="fill:#909399;fill-opacity:1;stroke:#909399;stroke-width:0.707445;stroke-dasharray:none;stroke-opacity:1"
       id="path7275-9-5-1-7"
       cx="418.06995"
       cy="86.128197"
       r="25.53945" /><path
       style="fill:#706ee7;fill-opacity:1;stroke:#706ee7;stroke-width:13.2158;stroke-dasharray:none;stroke-opacity:1"
       d="m 326.42014,1657.8941 c -34.23774,-16.9474 -58.30175,-61.1877 -52.43802,-96.4043 8.31714,-49.9515 45.13914,-81.2437 95.60067,-81.2437 22.50364,0 29.75663,1.7326 45.16249,10.7882 43.83001,25.7636 60.0989,80.2472 37.30397,124.9289 -8.62729,16.9109 -30.78844,37.3433 -48.55352,44.7661 -19.48758,8.1424 -57.74091,6.7353 -77.07559,-2.8352 z"
       id="path9099"
       transform="scale(0.26458333)" /><path
       style="fill:#706ee7;fill-opacity:1;stroke:#706ee7;stroke-width:13.2158;stroke-dasharray:none;stroke-opacity:1"
       d="m 342.77368,1401.9824 c -27.96867,-6.809 -54.52108,-29.8534 -65.96994,-57.2544 -8.47759,-20.2897 -7.23454,-54.4438 2.73073,-75.0293 16.96468,-35.0444 61.08319,-59.4614 96.89174,-53.624 46.12633,7.5195 83.15861,49.2154 83.15861,93.6313 0,59.6737 -59.06675,106.3342 -116.81114,92.2764 z"
       id="path9101"
       transform="scale(0.26458333)" /><path
       style="fill:#706ee7;fill-opacity:1;stroke:#706ee7;stroke-width:13.2158;stroke-dasharray:none;stroke-opacity:1"
       d="m 342.77368,1130.2714 c -43.60641,-11.4132 -72.67905,-48.5227 -72.36983,-92.3757 0.60005,-85.09643 103.03057,-126.12701 160.98562,-64.48597 19.32561,20.55474 25.77189,36.69307 25.75816,64.48597 -0.0186,37.7422 -18.39761,67.5324 -52.35025,84.8537 -16.69968,8.5196 -45.06787,11.96 -62.0237,7.522 z"
       id="path9103"
       transform="scale(0.26458333)" /><path
       style="fill:#706ee7;fill-opacity:1;stroke:#706ee7;stroke-width:13.2158;stroke-dasharray:none;stroke-opacity:1"
       d="m 1155.6565,637.95446 c -100.6433,-35.91605 -76.4728,-183.15698 30.0663,-183.15698 52.6289,0 93.5895,41.10897 93.3708,93.70889 -0.1625,39.08864 -24.0673,73.74937 -60.1829,87.26192 -23.5499,8.81116 -42.8231,9.47728 -63.2542,2.18617 z"
       id="path9105"
       transform="scale(0.26458333)" /><path
       style="fill:#706ee7;fill-opacity:1;stroke:#706ee7;stroke-width:13.2158;stroke-dasharray:none;stroke-opacity:1"
       d="m 1153.1195,908.99552 c -37.1411,-13.62817 -64.1417,-55.37494 -60.8553,-94.09083 6.8587,-80.79884 99.5709,-117.34704 159.6538,-62.93736 23.5379,21.31533 34.5908,73.30515 21.994,103.45347 -7.5758,18.13146 -27.9657,39.98263 -45.7977,49.07984 -20.4813,10.44877 -53.3927,12.42135 -74.9948,4.49488 z"
       id="path9107"
       transform="scale(0.26458333)" /><path
       style="fill:#706ee7;fill-opacity:1;stroke:#706ee7;stroke-width:13.2158;stroke-dasharray:none;stroke-opacity:1"
       d="m 1171.0973,1175.8925 c -7.8368,-1.4897 -22.4405,-7.7732 -32.4527,-13.9633 -40.5605,-25.0766 -54.964,-77.4704 -33.0377,-120.1773 45.4856,-88.59433 176.9038,-58.00865 177.3166,41.2678 0.2444,58.7893 -54.0247,103.8603 -111.8262,92.8728 z"
       id="path9109"
       transform="scale(0.26458333)" /><path
       style="fill:#29c287;fill-opacity:1;stroke:#29c287;stroke-width:13.2158;stroke-dasharray:none;stroke-opacity:1"
       d="m 760.22989,1406.7247 c -21.8874,-4.7442 -34.99046,-11.0421 -48.65136,-23.3839 -22.56153,-20.383 -31.47599,-40.0563 -31.58019,-69.6942 -0.29382,-83.574 99.00585,-126.1775 158.50575,-68.0053 36.42273,35.6099 39.00313,89.6687 6.11424,128.092 -20.04244,23.415 -58.75172,38.5483 -84.38844,32.9914 z"
       id="path9947"
       transform="scale(0.26458333)" /><path
       style="fill:#29c287;fill-opacity:1;stroke:#29c287;stroke-width:13.2158;stroke-dasharray:none;stroke-opacity:1"
       d="m 746.80054,1141.5538 c -52.89812,-16.0909 -81.84538,-66.5563 -67.15777,-117.0798 19.61096,-67.45939 104.45982,-90.98301 154.64779,-42.87482 31.60377,30.29412 38.77573,75.47132 17.96477,113.16252 -20.92917,37.9053 -67.18953,58.4318 -105.45479,46.7921 z"
       id="path10018"
       transform="scale(0.26458333)" /><path
       style="fill:#29c287;fill-opacity:1;stroke:#29c287;stroke-width:13.2158;stroke-dasharray:none;stroke-opacity:1"
       d="m 736.26798,867.06849 c -8.96618,-3.30114 -23.90659,-13.60649 -33.20089,-22.9008 -38.46243,-38.46243 -37.49262,-96.39239 2.25149,-134.48952 46.91716,-44.97293 125.82675,-27.78603 151.68963,33.03875 7.70916,18.13053 7.38759,52.10768 -0.6732,71.1312 -19.12885,45.14416 -74.88119,69.8567 -120.06703,53.22037 z"
       id="path10020"
       transform="scale(0.26458333)" /><path
       style="fill:#29c287;fill-opacity:1;stroke:#29c287;stroke-width:13.2158;stroke-dasharray:none;stroke-opacity:1"
       d="m 1554.9286,416.83961 c -20.8506,-5.68502 -42.7748,-22.75549 -55.3509,-43.09688 -9.0308,-14.60703 -11.7734,-23.97025 -12.8636,-43.91651 -1.2057,-22.06005 0.046,-28.07686 9.6414,-46.34558 36.5379,-69.56414 131.5561,-69.74328 166.7671,-0.31441 26.6953,52.6379 -0.084,115.73473 -56.2283,132.48505 -21.0997,6.29494 -32.2973,6.551 -51.9657,1.18833 z"
       id="path10022"
       transform="scale(0.26458333)" /><path
       style="fill:#29c287;fill-opacity:1;stroke:#29c287;stroke-width:13.2158;stroke-dasharray:none;stroke-opacity:1"
       d="m 1560.03,689.53312 c -41.3859,-9.85746 -74.0391,-50.50371 -74.0391,-92.16285 0,-33.68173 19.5268,-65.40342 50.7293,-82.41074 38.6349,-21.05848 85.0779,-12.99655 113.8395,19.76112 17.3534,19.76443 23.095,35.50686 23.095,63.32236 0,42.47609 -25.6296,77.34069 -65.5747,89.20314 -21.6035,6.41553 -29.1988,6.77704 -48.05,2.28697 z"
       id="path10024"
       transform="scale(0.26458333)" /><path
       style="fill:#909399;fill-opacity:1;stroke:#909399;stroke-width:13.2158;stroke-dasharray:none;stroke-opacity:1"
       d="m 1545.354,946.69489 c -34.4771,-16.15585 -58.2762,-57.29001 -54.472,-94.14904 6.2017,-60.0881 62.2233,-98.8001 119.6925,-82.70971 23.2503,6.50968 52.8881,33.295 61.3461,55.44195 15.8494,41.50119 -0.8635,91.72149 -38.2078,114.8097 -24.1417,14.92564 -64.2126,17.92197 -88.3588,6.6071 z"
       id="path10026"
       transform="scale(0.26458333)" /><path
       style="fill:#909399;fill-opacity:1;stroke:#909399;stroke-width:13.2158;stroke-dasharray:none;stroke-opacity:1"
       d="m 1548.7447,691.0755 c -37.9469,-14.01675 -66.654,-54.34073 -66.4995,-93.40974 0.2902,-73.40783 80.8888,-121.74305 144.5101,-86.66328 33.5584,18.50353 50.8472,47.69731 50.5612,85.3773 -0.3097,40.7893 -16.2068,68.69713 -49.4334,86.7813 -24.3535,13.25484 -56.0884,16.42856 -79.1384,7.91442 z"
       id="path11793"
       transform="scale(0.26458333)" /><path
       style="fill:#909399;fill-opacity:1;stroke:#909399;stroke-width:13.2158;stroke-dasharray:none;stroke-opacity:1"
       d="m 1554.9038,421.53755 c -58.929,-17.9254 -89.909,-85.3563 -63.3212,-137.82472 18.652,-36.80787 60.5553,-60.96212 98.0538,-56.52097 61.6355,7.29981 101.4313,69.35686 83.2952,129.88952 -13.4625,44.9341 -73.829,77.90083 -118.0278,64.45617 z"
       id="path11795"
       transform="scale(0.26458333)" /><path
       style="fill:#909399;fill-opacity:1;stroke:#909399;stroke-width:13.2158;stroke-dasharray:none;stroke-opacity:1"
       d="m 1154.0019,642.40396 c -56.533,-21.92807 -82.1088,-82.29275 -57.1747,-134.94572 17.7788,-37.54345 47.1835,-56.0119 89.1798,-56.0119 83.979,0 128.1989,96.96061 72.8808,159.80523 -8.3115,9.44235 -22.1758,20.77172 -30.8097,25.17638 -18.8082,9.59523 -56.8361,12.66308 -74.0762,5.97601 z"
       id="path11797"
       transform="scale(0.26458333)" /><path
       style="fill:#909399;fill-opacity:1;stroke:#909399;stroke-width:13.2158;stroke-dasharray:none;stroke-opacity:1"
       d="m 1160.4269,915.81916 c -55.7872,-18.29432 -85.0611,-74.02919 -66.8912,-127.35494 13.4084,-39.35142 50.4399,-65.84642 92.2185,-65.97971 45.0002,-0.14358 81.5387,27.29143 93.45,70.1671 6.1434,22.11359 4.5563,52.5799 -3.5689,68.50656 -9.1444,17.92452 -32.0524,40.53615 -49.4142,48.77483 -15.1628,7.19525 -51.8057,10.47343 -65.7942,5.88616 z"
       id="path11799"
       transform="scale(0.26458333)" /><path
       style="fill:#909399;fill-opacity:1;stroke:#909399;stroke-width:13.2158;stroke-dasharray:none;stroke-opacity:1"
       d="m 1168.1114,1180.0344 c -47.9751,-15.5729 -76.4292,-51.3803 -76.4292,-96.1802 0,-80.0146 88.9172,-125.85332 155.4,-80.112 49.0598,33.754 53.2448,110.6416 8.2355,151.3048 -8.4065,7.5948 -20.8371,16.1287 -27.6234,18.9642 -16.1968,6.7675 -47.5317,9.9351 -59.5829,6.0232 z"
       id="path11801"
       transform="scale(0.26458333)" /><path
       style="fill:#909399;fill-opacity:1;stroke:#909399;stroke-width:13.2158;stroke-dasharray:none;stroke-opacity:1"
       d="m 733.42077,869.88935 c -46.81814,-21.34225 -72.32333,-71.05627 -59.65198,-116.27206 20.18324,-72.02086 112.11161,-97.36337 164.20695,-45.26804 20.62562,20.62562 27.58046,38.28309 27.53973,69.91996 -0.031,24.0641 -1.64466,30.72439 -11.68662,48.23527 -23.93803,41.74245 -79.83168,61.88179 -120.40808,43.38487 z"
       id="path11803"
       transform="scale(0.26458333)" /><path
       style="fill:#909399;fill-opacity:1;stroke:#909399;stroke-width:13.2158;stroke-dasharray:none;stroke-opacity:1"
       d="m 735.54088,1142.345 c -9.80794,-3.4629 -24.73494,-13.7181 -35.20074,-24.1839 -61.02489,-61.0249 -17.67929,-164.93976 69.01976,-165.46501 37.2663,-0.22578 68.34698,17.84221 85.77496,49.86311 22.12163,40.6447 16.26665,83.4694 -15.79543,115.5315 -28.91424,28.9142 -66.0333,37.5877 -103.79855,24.2543 z"
       id="path11805"
       transform="scale(0.26458333)" /><path
       style="fill:#909399;fill-opacity:1;stroke:#909399;stroke-width:13.2158;stroke-dasharray:none;stroke-opacity:1"
       d="m 745.66867,1407.6932 c -92.45081,-32.9765 -94.04626,-155.6402 -2.44474,-187.9591 45.56026,-16.0746 97.6642,7.1648 120.39554,53.6988 10.43065,21.3529 9.9257,59.6466 -1.06701,80.9184 -11.46184,22.1797 -40.16831,46.2568 -63.36339,53.145 -23.40059,6.9492 -34.47596,6.9899 -53.5204,0.1969 z"
       id="path11807"
       transform="scale(0.26458333)" /><path
       style="fill:#909399;fill-opacity:1;stroke:#909399;stroke-width:13.2158;stroke-dasharray:none;stroke-opacity:1"
       d="M 330.84497,1131.2789 C 251.01386,1102.9666 243.648,990.06216 319.07445,950.85959 391.41089,913.26304 474.89599,976.3096 459.59716,1056.98 c -11.1833,58.9693 -72.38792,94.2886 -128.75219,74.2989 z"
       id="path11809"
       transform="scale(0.26458333)" /><path
       style="fill:#909399;fill-opacity:1;stroke:#909399;stroke-width:13.2158;stroke-dasharray:none;stroke-opacity:1"
       d="m 334.93471,1404.3147 c -43.80262,-16.877 -66.90213,-49.1772 -66.75945,-93.3503 0.10659,-33.0014 8.49545,-52.0121 32.1327,-72.8184 39.31956,-34.6105 82.13852,-36.4762 123.29218,-5.3723 37.64839,28.4547 50.0658,75.9319 30.72358,117.4697 -20.75016,44.5613 -77.4376,70.2351 -119.38901,54.0713 z"
       id="path11811"
       transform="scale(0.26458333)" /><path
       style="fill:#909399;fill-opacity:1;stroke:#909399;stroke-width:13.2158;stroke-dasharray:none;stroke-opacity:1"
       d="m 327.45418,1662.6594 c -28.84416,-13.1746 -53.86411,-47.7243 -58.25214,-80.4395 -4.98854,-37.1923 23.75893,-85.1089 59.27991,-98.8082 64.31998,-24.8063 130.76599,14.293 137.65063,80.9988 4.00103,38.7663 -19.01568,78.7151 -56.31574,97.7442 -19.82357,10.1132 -60.7766,10.3642 -82.36266,0.5047 z"
       id="path11813"
       transform="scale(0.26458333)" /></g></svg>
