<?xml version="1.0" encoding="UTF-8" standalone="no"?>
<!-- Created with Inkscape (http://www.inkscape.org/) -->

<svg
   width="512mm"
   height="512mm"
   viewBox="0 0 512 512"
   version="1.1"
   id="svg5"
   xml:space="preserve"
   inkscape:version="1.2.2 (732a01da63, 2022-12-09)"
   sodipodi:docname="ScatterPlot_disable.svg"
   xmlns:inkscape="http://www.inkscape.org/namespaces/inkscape"
   xmlns:sodipodi="http://sodipodi.sourceforge.net/DTD/sodipodi-0.dtd"
   xmlns="http://www.w3.org/2000/svg"
   xmlns:svg="http://www.w3.org/2000/svg"><sodipodi:namedview
     id="namedview7"
     pagecolor="#505050"
     bordercolor="#ffffff"
     borderopacity="1"
     inkscape:showpageshadow="0"
     inkscape:pageopacity="0"
     inkscape:pagecheckerboard="1"
     inkscape:deskcolor="#505050"
     inkscape:document-units="mm"
     showgrid="false"
     inkscape:zoom="0.26110523"
     inkscape:cx="884.70078"
     inkscape:cy="1114.4932"
     inkscape:window-width="1920"
     inkscape:window-height="1009"
     inkscape:window-x="1912"
     inkscape:window-y="-8"
     inkscape:window-maximized="1"
     inkscape:current-layer="layer1" /><defs
     id="defs2"><style
       type="text/css"
       id="style113" /><style
       type="text/css"
       id="style130" /></defs><g
     inkscape:label="圖層 1"
     inkscape:groupmode="layer"
     id="layer1"><g
       id="g128"
       transform="matrix(0.05167643,0,0,0.05167643,838.25608,436.27736)"><path
         d="M 483.556,540.444 V 145.067 C 292.978,159.289 142.222,318.577 142.222,512 c 0,204.8 164.978,369.778 369.778,369.778 193.422,0 352.711,-150.756 366.933,-341.334 z"
         fill="#706ee7"
         p-id="2082"
         id="path117" /><path
         d="M 540.444,116.622 V 483.556 H 907.378 C 896,287.289 736.71,128 540.444,116.622 Z"
         fill="#29c287"
         p-id="2083"
         id="path119" /></g><g
       id="g145"
       transform="matrix(0.05167643,0,0,0.05167643,840.28272,355.21171)"><path
         d="M 483.556,540.444 V 145.067 C 292.978,159.289 142.222,318.577 142.222,512 c 0,204.8 164.978,369.778 369.778,369.778 193.422,0 352.711,-150.756 366.933,-341.334 z"
         fill="#909399"
         p-id="2082"
         id="path134" /><path
         d="M 540.444,116.622 V 483.556 H 907.378 C 896,287.289 736.71,128 540.444,116.622 Z"
         fill="#909399"
         p-id="2083"
         id="path136" /></g><path
       style="fill:#000000;fill-opacity:0;stroke:none;stroke-width:0.716526"
       d="M 278.96148,442.82114 V 271.57145 h 5.37394 5.37395 l -10e-6,166.05488 -1e-5,166.05488 166.59229,-0.18214 166.5923,-0.18216 v 5.37697 5.37696 H 450.9277 278.96148 Z"
       id="path1903-6" /><circle
       style="fill:#909399;fill-opacity:1;stroke:#909399;stroke-width:0.707445;stroke-dasharray:none;stroke-opacity:1"
       id="path7275"
       cx="97.37735"
       cy="416.19788"
       r="25.53945" /><circle
       style="fill:#909399;fill-opacity:1;stroke:#909399;stroke-width:0.707445;stroke-dasharray:none;stroke-opacity:1"
       id="path7275-6"
       cx="96.481689"
       cy="346.61639"
       r="25.53945" /><circle
       style="fill:#909399;fill-opacity:1;stroke:#909399;stroke-width:0.707445;stroke-dasharray:none;stroke-opacity:1"
       id="path7275-9"
       cx="96.266525"
       cy="274.66293"
       r="25.53945" /><circle
       style="fill:#909399;fill-opacity:1;stroke:#909399;stroke-width:0.707445;stroke-dasharray:none;stroke-opacity:1"
       id="path7275-2"
       cx="204.62704"
       cy="347.40399"
       r="25.53945" /><circle
       style="fill:#909399;fill-opacity:1;stroke:#909399;stroke-width:0.707445;stroke-dasharray:none;stroke-opacity:1"
       id="path7275-6-8"
       cx="203.73138"
       cy="277.82254"
       r="25.53945" /><circle
       style="fill:#909399;fill-opacity:1;stroke:#909399;stroke-width:0.707445;stroke-dasharray:none;stroke-opacity:1"
       id="path7275-9-5"
       cx="203.5162"
       cy="205.86909"
       r="25.53945" /><circle
       style="fill:#909399;fill-opacity:1;stroke:#909399;stroke-width:0.707445;stroke-dasharray:none;stroke-opacity:1"
       id="path7275-2-2"
       cx="314.68481"
       cy="286.60477"
       r="25.53945" /><circle
       style="fill:#909399;fill-opacity:1;stroke:#909399;stroke-width:0.707445;stroke-dasharray:none;stroke-opacity:1"
       id="path7275-6-8-4"
       cx="313.78915"
       cy="217.0233"
       r="25.53945" /><circle
       style="fill:#909399;fill-opacity:1;stroke:#909399;stroke-width:0.707445;stroke-dasharray:none;stroke-opacity:1"
       id="path7275-9-5-1"
       cx="313.57401"
       cy="145.06985"
       r="25.53945" /><circle
       style="fill:#909399;fill-opacity:1;stroke:#909399;stroke-width:0.707445;stroke-dasharray:none;stroke-opacity:1"
       id="path7275-2-2-0"
       cx="419.18076"
       cy="227.66299"
       r="25.53945" /><circle
       style="fill:#909399;fill-opacity:1;stroke:#909399;stroke-width:0.707445;stroke-dasharray:none;stroke-opacity:1"
       id="path7275-6-8-4-7"
       cx="418.2851"
       cy="158.08151"
       r="25.53945" /><circle
       style="fill:#909399;fill-opacity:1;stroke:#909399;stroke-width:0.707445;stroke-dasharray:none;stroke-opacity:1"
       id="path7275-9-5-1-7"
       cx="418.06995"
       cy="86.128197"
       r="25.53945" /><path
       style="fill:#706ee7;fill-opacity:1;stroke:#706ee7;stroke-width:13.2158;stroke-dasharray:none;stroke-opacity:1"
       d="m 326.42014,1657.8941 c -34.23774,-16.9474 -58.30175,-61.1877 -52.43802,-96.4043 8.31714,-49.9515 45.13914,-81.2437 95.60067,-81.2437 22.50364,0 29.75663,1.7326 45.16249,10.7882 43.83001,25.7636 60.0989,80.2472 37.30397,124.9289 -8.62729,16.9109 -30.78844,37.3433 -48.55352,44.7661 -19.48758,8.1424 -57.74091,6.7353 -77.07559,-2.8352 z"
       id="path9099"
       transform="scale(0.26458333)" /><path
       style="fill:#706ee7;fill-opacity:1;stroke:#706ee7;stroke-width:13.2158;stroke-dasharray:none;stroke-opacity:1"
       d="m 342.77368,1401.9824 c -27.96867,-6.809 -54.52108,-29.8534 -65.96994,-57.2544 -8.47759,-20.2897 -7.23454,-54.4438 2.73073,-75.0293 16.96468,-35.0444 61.08319,-59.4614 96.89174,-53.624 46.12633,7.5195 83.15861,49.2154 83.15861,93.6313 0,59.6737 -59.06675,106.3342 -116.81114,92.2764 z"
       id="path9101"
       transform="scale(0.26458333)" /><path
       style="fill:#706ee7;fill-opacity:1;stroke:#706ee7;stroke-width:13.2158;stroke-dasharray:none;stroke-opacity:1"
       d="m 342.77368,1130.2714 c -43.60641,-11.4132 -72.67905,-48.5227 -72.36983,-92.3757 0.60005,-85.09643 103.03057,-126.12701 160.98562,-64.48597 19.32561,20.55474 25.77189,36.69307 25.75816,64.48597 -0.0186,37.7422 -18.39761,67.5324 -52.35025,84.8537 -16.69968,8.5196 -45.06787,11.96 -62.0237,7.522 z"
       id="path9103"
       transform="scale(0.26458333)" /><path
       style="fill:#706ee7;fill-opacity:1;stroke:#706ee7;stroke-width:13.2158;stroke-dasharray:none;stroke-opacity:1"
       d="m 1155.6565,637.95446 c -100.6433,-35.91605 -76.4728,-183.15698 30.0663,-183.15698 52.6289,0 93.5895,41.10897 93.3708,93.70889 -0.1625,39.08864 -24.0673,73.74937 -60.1829,87.26192 -23.5499,8.81116 -42.8231,9.47728 -63.2542,2.18617 z"
       id="path9105"
       transform="scale(0.26458333)" /><path
       style="fill:#706ee7;fill-opacity:1;stroke:#706ee7;stroke-width:13.2158;stroke-dasharray:none;stroke-opacity:1"
       d="m 1153.1195,908.99552 c -37.1411,-13.62817 -64.1417,-55.37494 -60.8553,-94.09083 6.8587,-80.79884 99.5709,-117.34704 159.6538,-62.93736 23.5379,21.31533 34.5908,73.30515 21.994,103.45347 -7.5758,18.13146 -27.9657,39.98263 -45.7977,49.07984 -20.4813,10.44877 -53.3927,12.42135 -74.9948,4.49488 z"
       id="path9107"
       transform="scale(0.26458333)" /><path
       style="fill:#706ee7;fill-opacity:1;stroke:#706ee7;stroke-width:13.2158;stroke-dasharray:none;stroke-opacity:1"
       d="m 1171.0973,1175.8925 c -7.8368,-1.4897 -22.4405,-7.7732 -32.4527,-13.9633 -40.5605,-25.0766 -54.964,-77.4704 -33.0377,-120.1773 45.4856,-88.59433 176.9038,-58.00865 177.3166,41.2678 0.2444,58.7893 -54.0247,103.8603 -111.8262,92.8728 z"
       id="path9109"
       transform="scale(0.26458333)" /><path
       style="fill:#29c287;fill-opacity:1;stroke:#29c287;stroke-width:13.2158;stroke-dasharray:none;stroke-opacity:1"
       d="m 760.22989,1406.7247 c -21.8874,-4.7442 -34.99046,-11.0421 -48.65136,-23.3839 -22.56153,-20.383 -31.47599,-40.0563 -31.58019,-69.6942 -0.29382,-83.574 99.00585,-126.1775 158.50575,-68.0053 36.42273,35.6099 39.00313,89.6687 6.11424,128.092 -20.04244,23.415 -58.75172,38.5483 -84.38844,32.9914 z"
       id="path9947"
       transform="scale(0.26458333)" /><path
       style="fill:#29c287;fill-opacity:1;stroke:#29c287;stroke-width:13.2158;stroke-dasharray:none;stroke-opacity:1"
       d="m 746.80054,1141.5538 c -52.89812,-16.0909 -81.84538,-66.5563 -67.15777,-117.0798 19.61096,-67.45939 104.45982,-90.98301 154.64779,-42.87482 31.60377,30.29412 38.77573,75.47132 17.96477,113.16252 -20.92917,37.9053 -67.18953,58.4318 -105.45479,46.7921 z"
       id="path10018"
       transform="scale(0.26458333)" /><path
       style="fill:#29c287;fill-opacity:1;stroke:#29c287;stroke-width:13.2158;stroke-dasharray:none;stroke-opacity:1"
       d="m 736.26798,867.06849 c -8.96618,-3.30114 -23.90659,-13.60649 -33.20089,-22.9008 -38.46243,-38.46243 -37.49262,-96.39239 2.25149,-134.48952 46.91716,-44.97293 125.82675,-27.78603 151.68963,33.03875 7.70916,18.13053 7.38759,52.10768 -0.6732,71.1312 -19.12885,45.14416 -74.88119,69.8567 -120.06703,53.22037 z"
       id="path10020"
       transform="scale(0.26458333)" /><path
       style="fill:#29c287;fill-opacity:1;stroke:#29c287;stroke-width:13.2158;stroke-dasharray:none;stroke-opacity:1"
       d="m 1554.9286,416.83961 c -20.8506,-5.68502 -42.7748,-22.75549 -55.3509,-43.09688 -9.0308,-14.60703 -11.7734,-23.97025 -12.8636,-43.91651 -1.2057,-22.06005 0.046,-28.07686 9.6414,-46.34558 36.5379,-69.56414 131.5561,-69.74328 166.7671,-0.31441 26.6953,52.6379 -0.084,115.73473 -56.2283,132.48505 -21.0997,6.29494 -32.2973,6.551 -51.9657,1.18833 z"
       id="path10022"
       transform="scale(0.26458333)" /><path
       style="fill:#29c287;fill-opacity:1;stroke:#29c287;stroke-width:13.2158;stroke-dasharray:none;stroke-opacity:1"
       d="m 1560.03,689.53312 c -41.3859,-9.85746 -74.0391,-50.50371 -74.0391,-92.16285 0,-33.68173 19.5268,-65.40342 50.7293,-82.41074 38.6349,-21.05848 85.0779,-12.99655 113.8395,19.76112 17.3534,19.76443 23.095,35.50686 23.095,63.32236 0,42.47609 -25.6296,77.34069 -65.5747,89.20314 -21.6035,6.41553 -29.1988,6.77704 -48.05,2.28697 z"
       id="path10024"
       transform="scale(0.26458333)" /><path
       style="fill:#29c287;fill-opacity:1;stroke:#29c287;stroke-width:13.2158;stroke-dasharray:none;stroke-opacity:1"
       d="m 1545.354,946.69489 c -34.4771,-16.15585 -58.2762,-57.29001 -54.472,-94.14904 6.2017,-60.0881 62.2233,-98.8001 119.6925,-82.70971 23.2503,6.50968 52.8881,33.295 61.3461,55.44195 15.8494,41.50119 -0.8635,91.72149 -38.2078,114.8097 -24.1417,14.92564 -64.2126,17.92197 -88.3588,6.6071 z"
       id="path10026"
       transform="scale(0.26458333)" /></g></svg>
