<?xml version="1.0" encoding="UTF-8" standalone="no"?>
<!-- Created with Inkscape (http://www.inkscape.org/) -->

<svg
   width="210mm"
   height="210mm"
   viewBox="0 0 210 210"
   version="1.1"
   id="svg5"
   sodipodi:docname="dashboard-white.svg"
   inkscape:version="1.2.2 (732a01da63, 2022-12-09)"
   xml:space="preserve"
   xmlns:inkscape="http://www.inkscape.org/namespaces/inkscape"
   xmlns:sodipodi="http://sodipodi.sourceforge.net/DTD/sodipodi-0.dtd"
   xmlns="http://www.w3.org/2000/svg"
   xmlns:svg="http://www.w3.org/2000/svg"><sodipodi:namedview
     id="namedview7"
     pagecolor="#505050"
     bordercolor="#ffffff"
     borderopacity="1"
     inkscape:showpageshadow="0"
     inkscape:pageopacity="0"
     inkscape:pagecheckerboard="1"
     inkscape:deskcolor="#505050"
     inkscape:document-units="mm"
     showgrid="true"
     inkscape:zoom="0.52221046"
     inkscape:cx="579.26837"
     inkscape:cy="160.85469"
     inkscape:window-width="1920"
     inkscape:window-height="1009"
     inkscape:window-x="1912"
     inkscape:window-y="-8"
     inkscape:window-maximized="1"
     inkscape:current-layer="layer1"><sodipodi:guide
       position="0,210"
       orientation="0,793.70079"
       id="guide3388"
       inkscape:locked="false" /><sodipodi:guide
       position="210,210"
       orientation="793.70079,0"
       id="guide3390"
       inkscape:locked="false" /><sodipodi:guide
       position="210,0"
       orientation="0,-793.70079"
       id="guide3392"
       inkscape:locked="false" /><sodipodi:guide
       position="0,0"
       orientation="-793.70079,0"
       id="guide3394"
       inkscape:locked="false" /><inkscape:grid
       type="xygrid"
       id="grid3396" /></sodipodi:namedview><defs
     id="defs2" /><g
     inkscape:label="圖層 1"
     inkscape:groupmode="layer"
     id="layer1"><path
       d="m 48.489876,132.78573 c 0,-3.89938 -1.388458,-7.22971 -4.165256,-9.98788 -2.776856,-2.75973 -6.125831,-4.13882 -10.050098,-4.13882 -3.924268,0 -7.274771,1.37909 -10.051627,4.13882 -2.77527,2.75817 -4.163668,6.0885 -4.163668,9.98788 0,3.89938 1.388398,7.22972 4.163668,9.98789 2.776856,2.75973 6.125832,4.13882 10.051627,4.13882 3.924267,0 7.273242,-1.37909 10.050098,-4.13882 2.776798,-2.75973 4.165256,-6.08851 4.165256,-9.98789 z M 69.812054,83.342272 c 0,-3.899372 -1.388399,-7.229711 -4.165255,-9.987878 -2.77527,-2.759736 -6.125773,-4.13882 -10.05004,-4.13882 -3.924267,0 -7.274829,1.379084 -10.050098,4.13882 -2.776799,2.758167 -4.165255,6.088506 -4.165255,9.987878 0,3.899382 1.388456,7.22972 4.165255,9.987888 2.775269,2.758177 6.125831,4.13882 10.050098,4.13882 3.924267,0 7.27477,-1.380643 10.05004,-4.13882 2.776856,-2.759726 4.165255,-6.088506 4.165255,-9.987888 z m 47.531106,53.084748 11.21773,-42.159323 c 0.44307,-1.912376 0.1663,-3.697263 -0.83338,-5.353095 -0.99968,-1.654283 -2.42546,-2.739523 -4.27562,-3.255709 -1.85022,-0.513059 -3.62728,-0.275189 -5.33135,0.718314 -1.70249,0.993493 -2.81411,2.445658 -3.33188,4.359583 l -11.21613,42.15933 c -4.442029,0.36851 -8.403615,1.96835 -11.883157,4.80115 -3.479607,2.83281 -5.811805,6.45544 -6.996535,10.87101 -1.480124,5.6656 -0.740057,11.0358 2.221787,16.11371 2.961835,5.07634 7.291929,8.34915 12.993258,9.82152 5.701377,1.47238 11.105767,0.73697 16.214767,-2.20778 5.10747,-2.94164 8.40203,-7.24526 9.88374,-12.91242 1.18473,-4.41557 0.96242,-8.71764 -0.66703,-12.91243 -1.62785,-4.19323 -4.29429,-7.54067 -7.9962,-10.04386 z m 73.29685,-3.64129 c 0,-3.89938 -1.38841,-7.22971 -4.16367,-9.98788 -2.77686,-2.75973 -6.12584,-4.13882 -10.05163,-4.13882 -3.92427,0 -7.27325,1.37909 -10.0501,4.13882 -2.77686,2.75817 -4.16525,6.0885 -4.16525,9.98788 0,3.89938 1.38839,7.22972 4.16525,9.98789 2.77685,2.75973 6.12583,4.13882 10.0501,4.13882 3.92426,0 7.27477,-1.37909 10.05163,-4.13882 2.77526,-2.75973 4.16367,-6.08851 4.16367,-9.98789 z M 119.56494,62.152221 c 0,-3.900937 -1.3884,-7.229716 -4.16525,-9.989443 -2.77375,-2.756618 -6.12584,-4.137261 -10.0501,-4.137261 -3.92421,0 -7.274772,1.379085 -10.050042,4.137261 -2.77686,2.759727 -4.165258,6.088506 -4.165258,9.989443 0,3.899381 1.388398,7.22971 4.165258,9.987887 2.77527,2.758177 6.125832,4.13882 10.050042,4.13882 3.92426,0 7.27482,-1.380643 10.0501,-4.13882 2.77685,-2.759726 4.16525,-6.088506 4.16525,-9.987887 z m 49.75288,21.190051 c 0,-3.899372 -1.38845,-7.229711 -4.16525,-9.987878 -2.77527,-2.759736 -6.12583,-4.13882 -10.05009,-4.13882 -3.92428,0 -7.27478,1.379084 -10.05011,4.13882 -2.7768,2.758167 -4.16519,6.088506 -4.16519,9.987878 0,3.899382 1.38839,7.22972 4.16519,9.987888 2.77533,2.758177 6.12583,4.13882 10.05011,4.13882 3.92426,0 7.27482,-1.380643 10.05009,-4.13882 2.7768,-2.759726 4.16525,-6.088506 4.16525,-9.987888 z m 35.53753,49.443458 c 0,19.20306 -5.2194,36.9726 -15.65816,53.30709 -1.40709,2.13316 -3.40497,3.19973 -5.99831,3.19973 H 27.501942 c -2.59181,0 -4.591288,-1.06657 -5.998374,-3.19973 -10.440286,-16.26141 -15.6596942,-34.0294 -15.6596942,-53.30709 0,-13.39129 2.6275978,-26.19332 7.8842612,-38.407651 5.256724,-12.212773 12.32782,-22.735502 21.211821,-31.563526 8.885588,-8.831132 19.472077,-15.857169 31.762583,-21.08122 12.29051,-5.22405 25.171818,-7.836076 38.647051,-7.836076 13.47529,0 26.35659,2.612026 38.64711,7.836076 12.2905,5.224051 22.87698,12.251646 31.76257,21.08122 8.88395,8.828024 15.95511,19.350753 21.21183,31.563526 5.25513,12.214331 7.88425,25.016361 7.88425,38.407651 z"
       fill="#ffffff"
       id="path6466"
       style="stroke-width:1.55477" /></g></svg>
